<svg xmlns="http://www.w3.org/2000/svg" viewBox="0 0 1600 1000">
<defs><linearGradient id="bg" x1="0" x2="1" y1="0" y2="1"><stop stop-color="#15191c"/><stop offset="1" stop-color="#0b0d0f"/></linearGradient><linearGradient id="ember" x1="0" x2="1"><stop stop-color="#d9663d"/><stop offset="1" stop-color="#8e3e24"/></linearGradient><filter id="glow"><feGaussianBlur stdDeviation="36"/></filter></defs>
<rect width="1600" height="1000" fill="url(#bg)"/><g stroke="#262b30" stroke-width="1" opacity=".7"><path d="M0 100H1600M0 200H1600M0 300H1600M0 400H1600M0 500H1600M0 600H1600M0 700H1600M0 800H1600M0 900H1600"/><path d="M100 0V1000M200 0V1000M300 0V1000M400 0V1000M500 0V1000M600 0V1000M700 0V1000M800 0V1000M900 0V1000M1000 0V1000M1100 0V1000M1200 0V1000M1300 0V1000M1400 0V1000M1500 0V1000"/></g>
<circle cx="805" cy="520" r="310" fill="#d9663d" opacity=".09" filter="url(#glow)"/><text x="110" y="126" fill="#8a929b" font-family="monospace" font-size="26" letter-spacing="5">SMART ASSEMBLY / SYSTEM FLOW</text><text x="110" y="190" fill="#ede8dc" font-family="sans-serif" font-weight="600" font-size="54">Voice to delivery, one state machine.</text>
<g fill="none" stroke="#d9663d" stroke-width="5"><path d="M280 494H475"/><path d="M625 494H820"/><path d="M970 494H1165"/><path d="M1315 494H1420"/></g><g fill="#d9663d"><path d="M462 480l28 14-28 14z"/><path d="M807 480l28 14-28 14z"/><path d="M1152 480l28 14-28 14z"/><path d="M1407 480l28 14-28 14z"/></g>
<g font-family="monospace" text-anchor="middle"><g transform="translate(170 494)"><circle r="108" fill="#121518" stroke="#5a646d" stroke-width="3"/><circle r="68" fill="#d9663d" opacity=".13"/><path d="M-18-30v45a18 18 0 0036 0v-45M-34 7v10a34 34 0 0068 0V7M0 51v25M-24 76h48" fill="none" stroke="#d9663d" stroke-width="8" stroke-linecap="round"/><text y="142" fill="#ede8dc" font-size="28">STT ORDER</text><text y="179" fill="#8a929b" font-size="20">voice command</text></g>
<g transform="translate(545 494)"><rect x="-108" y="-108" width="216" height="216" rx="36" fill="#121518" stroke="#d9663d" stroke-width="3"/><g fill="#d9663d"><circle cx="-48" cy="-36" r="13"/><circle cx="48" cy="-36" r="13"/><circle cx="0" cy="36" r="13"/></g><path d="M-35-36H35M40-25L10 23M-10 24L-39-23" fill="none" stroke="#8a929b" stroke-width="6"/><text y="142" fill="#ede8dc" font-size="28">ROS2 FSM</text><text y="179" fill="#8a929b" font-size="20">orchestration</text></g>
<g transform="translate(890 494)"><circle r="108" fill="#121518" stroke="#5a646d" stroke-width="3"/><path d="M-55 35L-18-3 12 22 53-40M-18-3L-52-41M12 22L48 51" fill="none" stroke="#d9663d" stroke-width="18" stroke-linecap="round" stroke-linejoin="round"/><circle cx="-18" cy="-3" r="14" fill="#ede8dc"/><circle cx="12" cy="22" r="14" fill="#ede8dc"/><text y="142" fill="#ede8dc" font-size="28">ASSEMBLY</text><text y="179" fill="#8a929b" font-size="20">Dobot + conveyor</text></g>
<g transform="translate(1235 494)"><rect x="-108" y="-108" width="216" height="216" rx="36" fill="#121518" stroke="#5a646d" stroke-width="3"/><rect x="-58" y="-42" width="116" height="84" rx="12" fill="none" stroke="#d9663d" stroke-width="7"/><circle r="23" fill="none" stroke="#ede8dc" stroke-width="7"/><path d="M-75-62h28M47-62h28M-75 62h28M47 62h28" stroke="#8a929b" stroke-width="6"/><text y="142" fill="#ede8dc" font-size="28">VISION QA</text><text y="179" fill="#8a929b" font-size="20">YOLO / OpenCV</text></g>
<g transform="translate(1490 494)"><circle r="94" fill="#121518" stroke="#d9663d" stroke-width="3"/><rect x="-58" y="-36" width="116" height="67" rx="17" fill="none" stroke="#ede8dc" stroke-width="7"/><circle cx="-35" cy="43" r="15" fill="#d9663d"/><circle cx="35" cy="43" r="15" fill="#d9663d"/><path d="M-25-55h50" stroke="#d9663d" stroke-width="8"/><text y="128" fill="#ede8dc" font-size="25">DELIVERY</text><text y="162" fill="#8a929b" font-size="18">Nav2</text></g></g>
<g transform="translate(110 820)" font-family="monospace"><rect width="1380" height="78" rx="16" fill="#0e1113" stroke="#262b30"/><circle cx="38" cy="39" r="7" fill="#00d294"/><text x="62" y="48" fill="#8a929b" font-size="21">STATE</text><text x="164" y="48" fill="#ede8dc" font-size="21">ORDER_RECEIVED → ASSEMBLING → INSPECTED → DELIVERING → COMPLETE</text></g></svg>
